<svg width="30" height="30" viewBox="0 0 41 41" fill="none" xmlns="http://www.w3.org/2000/svg">
<path fill-rule="evenodd" clip-rule="evenodd" d="M20.5202 40.32C31.4555 40.32 40.3202 31.4552 40.3202 20.52C40.3202 9.58473 31.4555 0.719971 20.5202 0.719971C9.58498 0.719971 0.720215 9.58473 0.720215 20.52C0.720215 31.4552 9.58498 40.32 20.5202 40.32Z" fill="#135CB0"/>
<path d="M14.5361 20.5076C14.5361 23.8663 16.8081 26.1778 19.6333 26.1778C21.451 26.1778 22.7549 25.3085 23.4464 24.3799V26H25.7184V15.114H23.4464V16.6945C22.7747 15.8055 21.5102 14.9362 19.6728 14.9362C16.8081 14.9362 14.5361 17.149 14.5361 20.5076ZM23.4464 20.5471C23.4464 22.8982 21.8461 24.2219 20.147 24.2219C18.4677 24.2219 16.8476 22.8587 16.8476 20.5076C16.8476 18.1566 18.4677 16.8921 20.147 16.8921C21.8461 16.8921 23.4464 18.2158 23.4464 20.5471Z" fill="white"/>
</svg>
