<svg width="30" height="30" viewBox="0 0 41 41" fill="none" xmlns="http://www.w3.org/2000/svg">
<path fill-rule="evenodd" clip-rule="evenodd" d="M20.5202 40.32C31.4555 40.32 40.3202 31.4552 40.3202 20.52C40.3202 9.58476 31.4555 0.720001 20.5202 0.720001C9.58498 0.720001 0.720215 9.58476 0.720215 20.52C0.720215 31.4552 9.58498 40.32 20.5202 40.32Z" fill="#135CB0"/>
<path d="M18.0391 17.7341V12.38H15.7868V27H18.0391V25.4195C18.7503 26.3678 20.0345 27.1778 21.8324 27.1778C24.6971 27.1778 26.9494 24.8663 26.9494 21.5076C26.9494 18.149 24.7169 15.9362 21.8324 15.9362C20.1136 15.9362 18.7503 16.7462 18.0391 17.7341ZM24.6576 21.5076C24.6576 23.8587 23.0376 25.2219 21.3385 25.2219C19.6592 25.2219 18.0391 23.8982 18.0391 21.5471C18.0391 19.2158 19.6592 17.8921 21.3385 17.8921C23.0376 17.8921 24.6576 19.1566 24.6576 21.5076Z" fill="white"/>
</svg>
