<svg width="30" height="30" viewBox="0 0 40 41" fill="none" xmlns="http://www.w3.org/2000/svg">
<g clip-path="url(#clip0)">
<path fill-rule="evenodd" clip-rule="evenodd" d="M19.8 40.32C30.7352 40.32 39.6 31.4552 39.6 20.52C39.6 9.58476 30.7352 0.720001 19.8 0.720001C8.86476 0.720001 0 9.58476 0 20.52C0 31.4552 8.86476 40.32 19.8 40.32Z" fill="#135CB0"/>
<path d="M12.871 21.1049C12.871 25.234 16.0123 28.1185 19.8846 28.1185C22.7493 28.1185 25.219 26.6961 26.2661 24.0091H23.5594C22.8284 25.4711 21.5244 26.1626 19.8846 26.1626C17.1582 26.1626 15.1825 24.2067 15.1825 21.1049C15.1825 18.0031 17.1582 16.0669 19.8846 16.0669C21.5244 16.0669 22.8284 16.7584 23.5594 18.2204H26.2661C25.219 15.5335 22.7493 14.0912 19.8846 14.0912C16.0123 14.0912 12.871 16.9955 12.871 21.1049Z" fill="white"/>
</g>
<defs>
<clipPath id="clip0">
<rect width="40" height="41" fill="white"/>
</clipPath>
</defs>
</svg>
