<svg width="420" height="812" viewBox="0 0 420 812" fill="none" xmlns="http://www.w3.org/2000/svg">
<g clip-path="url(#clip0)">
<rect width="420" height="812" fill="white"/>
<path opacity="0.678153" fill-rule="evenodd" clip-rule="evenodd" d="M908 -11L-532 -11V823L908 823L908 -11Z" fill="url(#paint0_linear)"/>
<g opacity="0.338914">
<mask id="mask0" mask-type="alpha" maskUnits="userSpaceOnUse" x="-264" y="-76" width="1444" height="888">
<path fill-rule="evenodd" clip-rule="evenodd" d="M1087.39 -76C1087.39 -76 1116.98 86.9377 983.1 141.174C849.219 195.41 645.029 120.323 452.49 226.595C248.982 338.92 160.724 959.212 -264 662.328V812H1180V-76H1087.39Z" fill="white"/>
</mask>
<g mask="url(#mask0)">
<path fill-rule="evenodd" clip-rule="evenodd" d="M1087.39 -76C1087.39 -76 1116.98 86.9377 983.1 141.174C849.219 195.41 645.029 120.323 452.49 226.595C248.982 338.92 160.724 959.212 -264 662.328V812H1180V-76H1087.39Z" fill="url(#paint1_linear)"/>
</g>
</g>
</g>
<defs>
<linearGradient id="paint0_linear" x1="-580.86" y1="-171.557" x2="-580.86" y2="719.039" gradientUnits="userSpaceOnUse">
<stop stop-color="#FDFDFD"/>
<stop offset="1" stop-color="#AFD6FF"/>
</linearGradient>
<linearGradient id="paint1_linear" x1="14.4245" y1="76.3363" x2="3.16474" y2="1202.07" gradientUnits="userSpaceOnUse">
<stop stop-color="#EBF6FF"/>
<stop offset="1" stop-color="#1D9CF7"/>
</linearGradient>
<clipPath id="clip0">
<rect width="420" height="812" fill="white"/>
</clipPath>
</defs>
</svg>
